<?xml version="1.0" encoding="UTF-8" standalone="no"?>
<svg
   height="24px"
   viewBox="0 0 24 24"
   width="24px"
   fill="#757575"
   version="1.1"
   id="svg2"
   sodipodi:docname="backup.svg"
   inkscape:version="1.4.3 (0d15f75042, 2025-12-25)"
   xmlns:inkscape="http://www.inkscape.org/namespaces/inkscape"
   xmlns:sodipodi="http://sodipodi.sourceforge.net/DTD/sodipodi-0.dtd"
   xmlns="http://www.w3.org/2000/svg"
   xmlns:svg="http://www.w3.org/2000/svg">
  <defs
     id="defs2" />
  <sodipodi:namedview
     id="namedview2"
     pagecolor="#ffffff"
     bordercolor="#000000"
     borderopacity="0.25"
     inkscape:showpageshadow="2"
     inkscape:pageopacity="0.0"
     inkscape:pagecheckerboard="0"
     inkscape:deskcolor="#d1d1d1"
     inkscape:zoom="11.25"
     inkscape:cx="12"
     inkscape:cy="11.955556"
     inkscape:window-width="1025"
     inkscape:window-height="1024"
     inkscape:window-x="0"
     inkscape:window-y="0"
     inkscape:window-maximized="1"
     inkscape:current-layer="svg2" />
  <path
     d="M0 0h24v24H0z"
     fill="none"
     id="path1" />
  <g
     style="fill:#757575;fill-opacity:1"
     id="g9"
     transform="matrix(0.05410625,0,0,0.05410625,2,2.242)">
    <g
       id="g5"
       style="fill:#757575;fill-opacity:1">
	<g
   id="g4"
   style="fill:#757575;fill-opacity:1">
		<g
   id="g3"
   style="fill:#757575;fill-opacity:1">
			<path
   d="m 9.2,204 c 4.4,-0.4 7.6,-4.4 7.2,-8.8 C 16,191.6 16,188 16,184 c 0,-4.4 -3.6,-8 -8,-8 -4.4,0 -8,3.6 -8,8 0,4 0,8.4 0.4,12.8 0.4,4 4,7.2 8,7.2 0.4,0 0.4,0 0.8,0 z"
   id="path1-9"
   style="fill:#757575;fill-opacity:1" />

			<path
   d="M 184,0 C 132,0 82.4,22.4 48,60.4 V 8 C 48,3.6 44.4,0 40,0 35.6,0 32,3.6 32,8 v 80 c 0,4.4 3.6,8 8,8 h 80 c 4.4,0 8,-3.6 8,-8 0,-4.4 -3.6,-8 -8,-8 H 52.4 C 84,40 132.8,16 184,16 c 92.8,0 168,75.2 168,168 0,92.8 -75.2,168 -168,168 -74.4,0 -140.8,-50 -161.6,-122 -1.2,-4.4 -5.6,-6.8 -10,-5.6 C 8,225.6 5.6,230 6.8,234.4 29.6,313.2 102.4,368 184,368 285.6,368 368,285.6 368,184 368,82.4 285.6,0 184,0 Z"
   id="path2-3"
   style="fill:#757575;fill-opacity:1" />

			<path
   d="m 184,92 c -4.4,0 -8,3.6 -8,8 v 76 c 0,2 0.8,4 2.4,5.6 l 87.6,87.6 c 1.6,1.6 3.6,2.4 5.6,2.4 2,0 4,-0.8 5.6,-2.4 3.2,-3.2 3.2,-8 0,-11.2 L 192,172.8 V 100 c 0,-4.4 -3.6,-8 -8,-8 z"
   id="path3"
   style="fill:#757575;fill-opacity:1" />

		</g>

	</g>

</g>
  </g>
</svg>
