<?xml version="1.0" encoding="UTF-8" standalone="no"?>
<svg
   height="24px"
   viewBox="0 0 24 24"
   width="24px"
   fill="#757575"
   version="1.1"
   id="svg2"
   sodipodi:docname="plugins.svg"
   inkscape:version="1.4.3 (0d15f75042, 2025-12-25)"
   xmlns:inkscape="http://www.inkscape.org/namespaces/inkscape"
   xmlns:sodipodi="http://sodipodi.sourceforge.net/DTD/sodipodi-0.dtd"
   xmlns="http://www.w3.org/2000/svg"
   xmlns:svg="http://www.w3.org/2000/svg">
  <defs
     id="defs2" />
  <sodipodi:namedview
     id="namedview2"
     pagecolor="#ffffff"
     bordercolor="#000000"
     borderopacity="0.25"
     inkscape:showpageshadow="2"
     inkscape:pageopacity="0.0"
     inkscape:pagecheckerboard="0"
     inkscape:deskcolor="#d1d1d1"
     inkscape:zoom="11.25"
     inkscape:cx="12.044444"
     inkscape:cy="11.911111"
     inkscape:window-width="1025"
     inkscape:window-height="711"
     inkscape:window-x="0"
     inkscape:window-y="0"
     inkscape:window-maximized="0"
     inkscape:current-layer="svg2" />
  <path
     d="M0 0h24v24H0z"
     fill="none"
     id="path1" />
  <g
     style="fill:#757575;fill-opacity:1"
     id="g2"
     transform="matrix(0,0.97272534,-0.97272534,0,21.743507,2.244)">
    <path
       d="m 20,14 v 4 a 2,2 0 0 1 -2,2 h -4 v -2 a 2,2 0 0 0 -2,-2 2,2 0 0 0 -2,2 v 2 H 6 A 2,2 0 0 1 4,18 V 14 H 2 A 2,2 0 0 1 0,12 2,2 0 0 1 2,10 H 4 V 6 C 4,4.9 4.9,4 6,4 h 4 V 2 a 2,2 0 0 1 2,-2 2,2 0 0 1 2,2 v 2 h 4 a 2,2 0 0 1 2,2 v 4 h -2 a 2,2 0 0 0 -2,2 2,2 0 0 0 2,2 z"
       id="path1-6"
       style="fill:#757575;fill-opacity:1" />
  </g>
</svg>
