<?xml version="1.0" encoding="UTF-8" standalone="no"?>
<!-- Created with Inkscape (http://www.inkscape.org/) -->

<svg
   width="1024mm"
   height="1024mm"
   viewBox="0 0 1024 1024"
   version="1.1"
   id="svg1"
   inkscape:version="1.4.3 (0d15f75042, 2025-12-25)"
   sodipodi:docname="ProjectTickGit.svg"
   xml:space="preserve"
   xmlns:inkscape="http://www.inkscape.org/namespaces/inkscape"
   xmlns:sodipodi="http://sodipodi.sourceforge.net/DTD/sodipodi-0.dtd"
   xmlns="http://www.w3.org/2000/svg"
   xmlns:svg="http://www.w3.org/2000/svg"><sodipodi:namedview
     id="namedview1"
     pagecolor="#ffffff"
     bordercolor="#000000"
     borderopacity="0.25"
     inkscape:showpageshadow="2"
     inkscape:pageopacity="0.0"
     inkscape:pagecheckerboard="0"
     inkscape:deskcolor="#d1d1d1"
     inkscape:document-units="mm"
     showgrid="true"
     inkscape:zoom="0.11080848"
     inkscape:cx="198.54075"
     inkscape:cy="1430.3959"
     inkscape:window-width="1470"
     inkscape:window-height="822"
     inkscape:window-x="0"
     inkscape:window-y="0"
     inkscape:window-maximized="0"
     inkscape:current-layer="layer1"><inkscape:grid
       id="grid1"
       units="mm"
       originx="0"
       originy="0"
       spacingx="0.99999997"
       spacingy="0.99999997"
       empcolor="#0099e5"
       empopacity="0.30196078"
       color="#0099e5"
       opacity="0.14901961"
       empspacing="5"
       enabled="true"
       visible="true" /></sodipodi:namedview><defs
     id="defs1"><linearGradient
       id="linearGradient5"><stop
         style="stop-color:#ffffff;stop-opacity:1;"
         offset="0"
         id="stop4" /></linearGradient><linearGradient
       id="swatch3"
       inkscape:swatch="solid"><stop
         style="stop-color:#000000;stop-opacity:1;"
         offset="0"
         id="stop3" /></linearGradient><linearGradient
       id="swatch2"><stop
         style="stop-color:#000000;stop-opacity:1;"
         offset="0"
         id="stop2" /></linearGradient><clipPath
       clipPathUnits="userSpaceOnUse"
       id="clipPath6"><rect
         style="fill:#ffffff;fill-rule:evenodd;stroke:#ffffff;stroke-width:0.264999;paint-order:markers fill stroke"
         id="rect7"
         width="922.46198"
         height="763.75885"
         x="19.1325"
         y="20.1325"
         transform="rotate(45)" /></clipPath><clipPath
       clipPathUnits="userSpaceOnUse"
       id="clipPath6-5"><rect
         style="fill:#ffffff;fill-rule:evenodd;stroke:#ffffff;stroke-width:0.264999;paint-order:markers fill stroke"
         id="rect7-7"
         width="922.46198"
         height="763.75885"
         x="19.1325"
         y="20.1325"
         transform="rotate(45)" /></clipPath></defs><g
     inkscape:label="Katman 1"
     inkscape:groupmode="layer"
     id="layer1"><g
       id="g20"><g
         id="g19"
         style="fill:#000000"><rect
           style="fill:#000000;fill-opacity:1;stroke-width:0.194577"
           id="rect1-7"
           width="171.84564"
           height="628.63495"
           x="828"
           y="20" /><rect
           style="fill:#000000;fill-opacity:1;stroke-width:0.194539"
           id="rect1-7-5-5"
           width="171.84564"
           height="628.39044"
           x="828"
           y="-648.3905"
           transform="rotate(90)" /><rect
           style="fill:#000000;fill-opacity:1;stroke-width:0.242957"
           id="rect1"
           width="171.84564"
           height="980.11212"
           x="19"
           y="20" /><rect
           style="fill:#000000;fill-opacity:1;stroke-width:0.242949"
           id="rect1-7-5"
           width="171.84599"
           height="980.04517"
           x="20"
           y="-999.04517"
           transform="rotate(90)" /></g><g
         id="g6"><rect
           style="fill:#ff003c;fill-opacity:1;fill-rule:evenodd;stroke:#ffffff;stroke-width:0.265;stroke-dasharray:none;stroke-opacity:1;paint-order:markers fill stroke"
           id="rect2"
           width="342"
           height="342"
           x="658.13251"
           y="658.13251"
           inkscape:label="redblock" /></g></g><g
       id="g1"
       transform="translate(-16.790977,-18.598665)"
       style="fill:#782121"><rect
         style="fill:#782121;fill-opacity:1;fill-rule:evenodd;stroke:#ffffff;stroke-width:0.330555;paint-order:markers fill stroke"
         id="rect3"
         width="1168.5077"
         height="130.82413"
         x="-625.1311"
         y="249.81657"
         transform="rotate(-45)"
         clip-path="url(#clipPath6-5)" /></g><rect
       style="fill:#000000;fill-opacity:1;stroke:#ad91eb;stroke-width:0.189606"
       id="rect4"
       width="135.21034"
       height="135.21034"
       x="-65.08757"
       y="205.18323"
       transform="rotate(-45)" /><path
       d="M 312.38049,194.36193 214.34731,96.333841 c -5.64274,-5.645286 -14.79901,-5.645766 -20.44829,1.1e-5 l -20.35708,20.357088 25.82393,25.82393 c 6.00099,-2.02781 12.88259,-0.66747 17.66621,4.11615 4.80683,4.81389 6.15711,11.75466 4.08016,17.77495 l 24.88723,24.88809 c 6.02117,-2.0743 12.96854,-0.73236 17.77758,4.08458 6.72118,6.71835 6.72109,17.60742 -10e-6,24.33027 -6.72283,6.72371 -17.6118,6.7237 -24.33815,1e-5 -5.05531,-5.06097 -6.30447,-12.48528 -3.74514,-18.71345 l -23.20936,-23.20935 -0.002,61.0774 a 17.383773,17.383773 0 0 1 4.55031,3.25396 c 6.72118,6.71835 6.72106,17.60831 0,24.3364 -6.72293,6.72011 -17.61708,6.72021 -24.33026,0 -6.72106,-6.72812 -6.72109,-17.61708 -2e-5,-24.33552 a 17.238178,17.238178 0 0 1 5.63175,-3.75478 l -4.3e-4,-61.64618 a 16.996103,16.996103 0 0 1 -5.63225,-3.7548 c -5.09237,-5.0853 -6.31675,-12.55719 -3.70742,-18.80992 l -25.45646,-25.45917 -67.220232,67.21457 c -5.648305,5.65114 -5.648395,14.80866 0,20.45531 l 98.035212,98.02956 c 5.64393,5.64676 14.79901,5.64666 20.45003,2e-5 l 97.57614,-97.57473 c 5.64681,-5.64823 5.64663,-14.81129 -10e-6,-20.45707"
       fill="#de4c36"
       id="path1"
       style="stroke-width:0.877083" /></g></svg>
