<?xml version="1.0" encoding="UTF-8" standalone="no"?>
<svg
   version="1.1"
   id="Calque_1"
   x="0px"
   y="0px"
   viewBox="0 0 32 32"
   enable-background="new 0 0 32 32"
   xml:space="preserve"
   sodipodi:docname="plugins.svg"
   inkscape:version="1.4.3 (0d15f75042, 2025-12-25)"
   xmlns:inkscape="http://www.inkscape.org/namespaces/inkscape"
   xmlns:sodipodi="http://sodipodi.sourceforge.net/DTD/sodipodi-0.dtd"
   xmlns="http://www.w3.org/2000/svg"
   xmlns:svg="http://www.w3.org/2000/svg"><sodipodi:namedview
   id="namedview1"
   pagecolor="#ffffff"
   bordercolor="#000000"
   borderopacity="0.25"
   inkscape:showpageshadow="2"
   inkscape:pageopacity="0.0"
   inkscape:pagecheckerboard="0"
   inkscape:deskcolor="#d1d1d1"
   inkscape:zoom="7.9999996"
   inkscape:cx="14.437501"
   inkscape:cy="17.062501"
   inkscape:window-width="1025"
   inkscape:window-height="650"
   inkscape:window-x="0"
   inkscape:window-y="0"
   inkscape:window-maximized="0"
   inkscape:current-layer="g7954"
   showgrid="false" /><defs
   id="defs45" />

<g
   id="g7954"><path
     id="path2"
     d="M 26,32 H 6 C 2.7,32 0,29.3 0,26 V 6 C 0,2.7 2.7,0 6,0 h 20 c 3.3,0 6,2.7 6,6 v 20 c 0,3.3 -2.7,6 -6,6 z"
     fill="#3366cc"
     clip-rule="evenodd"
     fill-rule="evenodd" /><path
     fill="#daeeff"
     fill-rule="evenodd"
     clip-rule="evenodd"
     id="path4"
     d="M 28,6 C 28,4.9 27.1,4 26,4 H 6 C 4.9,4 4,4.9 4,6 v 20 c 0,1.1 0.9,2 2,2 h 20 c 1.1,0 2,-0.9 2,-2 z" /><path
     fill="none"
     d="M 8.9659036,28 H 22.965904 c 1.1,0 2,-0.9 2,-2 V 15 14 H 6.9659036 v 1 11 c 0,1.1 0.9,2 2,2 z"
     id="path8" /><rect
     style="fill:#000000;fill-opacity:0;stroke:none;stroke-width:0.000000879999;stroke-linecap:round;stroke-linejoin:round"
     id="rect2311"
     width="29.020048"
     height="4"
     x="1.4899759"
     y="7.1611009" /><g
     style="fill:#c1272d;fill-opacity:1"
     id="g2"
     transform="matrix(0,0.97272534,-0.97272534,0,25.893507,5.984)"><path
       d="m 20,14 v 4 a 2,2 0 0 1 -2,2 h -4 v -2 a 2,2 0 0 0 -2,-2 2,2 0 0 0 -2,2 v 2 H 6 A 2,2 0 0 1 4,18 V 14 H 2 A 2,2 0 0 1 0,12 2,2 0 0 1 2,10 H 4 V 6 C 4,4.9 4.9,4 6,4 h 4 V 2 a 2,2 0 0 1 2,-2 2,2 0 0 1 2,2 v 2 h 4 a 2,2 0 0 1 2,2 v 4 h -2 a 2,2 0 0 0 -2,2 2,2 0 0 0 2,2 z"
       id="path1-6"
       style="fill:#c1272d;fill-opacity:1" /></g></g></svg>
