<?xml version="1.0" encoding="UTF-8" standalone="no"?>
<!-- Generator: Adobe Illustrator 18.1.0, SVG Export Plug-In . SVG Version: 6.00 Build 0)  -->

<svg
   version="1.1"
   id="Calque_1"
   x="0px"
   y="0px"
   viewBox="0 0 32 32"
   enable-background="new 0 0 32 32"
   xml:space="preserve"
   sodipodi:docname="backup.svg"
   inkscape:version="1.4.3 (0d15f75042, 2025-12-25)"
   xmlns:inkscape="http://www.inkscape.org/namespaces/inkscape"
   xmlns:sodipodi="http://sodipodi.sourceforge.net/DTD/sodipodi-0.dtd"
   xmlns="http://www.w3.org/2000/svg"
   xmlns:svg="http://www.w3.org/2000/svg"><defs
   id="defs2" /><sodipodi:namedview
   id="namedview2"
   pagecolor="#ffffff"
   bordercolor="#000000"
   borderopacity="0.25"
   inkscape:showpageshadow="2"
   inkscape:pageopacity="0.0"
   inkscape:pagecheckerboard="0"
   inkscape:deskcolor="#d1d1d1"
   inkscape:zoom="18.141708"
   inkscape:cx="11.768462"
   inkscape:cy="12.04407"
   inkscape:window-width="1904"
   inkscape:window-height="1024"
   inkscape:window-x="0"
   inkscape:window-y="0"
   inkscape:window-maximized="1"
   inkscape:current-layer="Calque_1" />


<g
   style="fill:#3366cc;fill-opacity:1"
   id="g5"
   transform="matrix(0.99453008,0,0,0.99453008,-1.8953256,-2.0547777)"><rect
     class="clr-i-outline clr-i-outline-path-1"
     x="6"
     y="22"
     width="24"
     height="2"
     id="rect1-2"
     style="fill:#3366cc;fill-opacity:1" /><path
     class="clr-i-outline clr-i-outline-path-2"
     d="M 30.84,13.37 A 1.94,1.94 0 0 0 28.93,12 h -2.38 a 3,3 0 0 1 -0.14,2 h 2.54 C 30,16.94 31.72,21.65 32,22.48 V 30 H 4 V 22.48 C 4.28,21.65 7.05,14 7.05,14 H 9.58 A 3,3 0 0 1 9.44,12 H 7.07 a 1.92,1.92 0 0 0 -1.9,1.32 C 2,22 2,22.1 2,22.33 V 30 a 2,2 0 0 0 2,2 h 28 a 2,2 0 0 0 2,-2 V 22.33 C 34,22.1 34,22 30.84,13.37 Z"
     id="path1-9"
     style="fill:#3366cc;fill-opacity:1" /><path
     class="clr-i-outline clr-i-outline-path-3"
     d="m 18,19.84 6.38,-6.35 A 1,1 0 1 0 23,12.08 L 19,16 V 4 a 1,1 0 1 0 -2,0 v 12 l -4,-3.95 a 1.0005623,1.0005623 0 0 0 -1.41,1.42 z"
     id="path2-1"
     style="fill:#3366cc;fill-opacity:1" /></g></svg>
