<?xml version="1.0" encoding="UTF-8" standalone="no"?>
<!-- Created with Inkscape (http://www.inkscape.org/) -->

<svg
   width="1024mm"
   height="1024mm"
   viewBox="0 0 1024 1024"
   version="1.1"
   id="svg1"
   inkscape:version="1.4.3 (0d15f75042, 2025-12-25)"
   sodipodi:docname="ProjectTicksFlatpak.svg"
   xml:space="preserve"
   xmlns:inkscape="http://www.inkscape.org/namespaces/inkscape"
   xmlns:sodipodi="http://sodipodi.sourceforge.net/DTD/sodipodi-0.dtd"
   xmlns:xlink="http://www.w3.org/1999/xlink"
   xmlns="http://www.w3.org/2000/svg"
   xmlns:svg="http://www.w3.org/2000/svg"><sodipodi:namedview
     id="namedview1"
     pagecolor="#ffffff"
     bordercolor="#000000"
     borderopacity="0.25"
     inkscape:showpageshadow="2"
     inkscape:pageopacity="0.0"
     inkscape:pagecheckerboard="0"
     inkscape:deskcolor="#d1d1d1"
     inkscape:document-units="mm"
     showgrid="true"
     inkscape:zoom="0.084363228"
     inkscape:cx="1695.0513"
     inkscape:cy="2103.9973"
     inkscape:window-width="1470"
     inkscape:window-height="822"
     inkscape:window-x="0"
     inkscape:window-y="0"
     inkscape:window-maximized="0"
     inkscape:current-layer="layer1"><inkscape:grid
       id="grid1"
       units="mm"
       originx="0"
       originy="0"
       spacingx="0.99999997"
       spacingy="0.99999997"
       empcolor="#0099e5"
       empopacity="0.30196078"
       color="#0099e5"
       opacity="0.14901961"
       empspacing="5"
       enabled="true"
       visible="true" /></sodipodi:namedview><defs
     id="defs1"><linearGradient
       id="linearGradient5"><stop
         style="stop-color:#ffffff;stop-opacity:1;"
         offset="0"
         id="stop4" /></linearGradient><linearGradient
       id="swatch3"
       inkscape:swatch="solid"><stop
         style="stop-color:#000000;stop-opacity:1;"
         offset="0"
         id="stop3" /></linearGradient><linearGradient
       id="swatch2"><stop
         style="stop-color:#000000;stop-opacity:1;"
         offset="0"
         id="stop2" /></linearGradient><linearGradient
       inkscape:collect="always"
       xlink:href="#linearGradient5"
       id="linearGradient4"
       gradientUnits="userSpaceOnUse"
       x1="658"
       y1="829"
       x2="1000"
       y2="829"
       gradientTransform="translate(-10.367572,-10.367499)" /><clipPath
       clipPathUnits="userSpaceOnUse"
       id="clipPath6"><rect
         style="fill:#ffffff;fill-rule:evenodd;stroke:#ffffff;stroke-width:0.264999;paint-order:markers fill stroke"
         id="rect7"
         width="922.46198"
         height="763.75885"
         x="19.1325"
         y="20.1325"
         transform="rotate(45)" /></clipPath></defs><path
     d="m 509.25448,191.96179 c -14.68669,0 -29.34741,3.80371 -42.52759,11.41111 L 265.89641,319.33389 a 84.975761,84.975761 0 0 0 -42.52759,73.64308 v 231.921 c 0,30.40265 16.16624,58.42827 42.52759,73.64306 l 200.83048,115.96001 a 84.975761,84.975761 0 0 0 85.05518,0 L 752.61155,698.54103 a 84.975761,84.975761 0 0 0 42.52758,-73.64306 v -231.921 A 84.975761,84.975761 0 0 0 752.61155,319.33389 L 551.78207,203.3729 a 85.002176,85.002176 0 0 0 -42.52759,-11.41111 z m 0,62.28587 c 3.96343,0 7.89693,1.0283 11.38416,3.03497 l 200.85643,115.96001 c 3.48422,2.03662 6.3395,4.94182 8.31623,8.34618 L 509.24948,508.93297 v 254.69031 a 22.795799,22.795799 0 0 1 -11.38514,-3.06493 L 297.00791,644.59736 A 22.875042,22.875042 0 0 1 285.62274,624.89298 V 392.97197 c 0,-4.04331 1.08821,-7.97679 3.06494,-11.35819 l 220.5618,127.3182 z"
     id="path1"
     style="stroke-width:26.4145" /><g
     inkscape:label="Katman 1"
     inkscape:groupmode="layer"
     id="layer1"><g
       id="g5"><rect
         style="fill:#050505;stroke-width:0.242949;fill-opacity:1"
         id="rect1-7"
         width="171.84564"
         height="980.04517"
         x="828"
         y="20" /><rect
         style="fill:#050505;stroke-width:0.242949;fill-opacity:1"
         id="rect1-7-5-5"
         width="171.84564"
         height="980.04517"
         x="828"
         y="-1000.0452"
         transform="rotate(90)" /><rect
         style="fill:#050505;stroke-width:0.242957;fill-opacity:1"
         id="rect1"
         width="171.84564"
         height="980.11212"
         x="19"
         y="20" /><rect
         style="fill:#050505;stroke-width:0.242949;fill-opacity:1"
         id="rect1-7-5"
         width="171.84599"
         height="980.04517"
         x="20"
         y="-999.04517"
         transform="rotate(90)" /></g><g
       id="g6"><rect
         style="fill:url(#linearGradient4);fill-opacity:1;fill-rule:evenodd;stroke:#ffffff;stroke-width:0.265;stroke-dasharray:none;stroke-opacity:1;paint-order:markers fill stroke"
         id="rect2-8"
         width="352"
         height="352"
         x="647.63251"
         y="647.63251"
         inkscape:label="backgroundofblock" /><rect
         style="fill:#ff003c;fill-opacity:1;fill-rule:evenodd;stroke:#ffffff;stroke-width:0.265;stroke-dasharray:none;stroke-opacity:1;paint-order:markers fill stroke"
         id="rect2"
         width="342"
         height="342"
         x="658.13251"
         y="658.13251"
         inkscape:label="redblock" /></g><g
       id="g1"
       style="fill:#eeded8;fill-opacity:1"><rect
         style="fill:#eeded8;fill-rule:evenodd;stroke:#f3effc;stroke-width:0.330555;paint-order:markers fill stroke;fill-opacity:1;stroke-opacity:1"
         id="rect3"
         width="1168.5077"
         height="130.82413"
         x="-625.1311"
         y="249.81657"
         transform="rotate(-45)"
         clip-path="url(#clipPath6)" /></g></g></svg>
