<?xml version="1.0" encoding="UTF-8" standalone="no"?>
<svg
   viewBox="0 0 22 22"
   version="1.1"
   id="svg1"
   sodipodi:docname="backup.svg"
   inkscape:version="1.4.3 (0d15f75042, 2025-12-25)"
   xmlns:inkscape="http://www.inkscape.org/namespaces/inkscape"
   xmlns:sodipodi="http://sodipodi.sourceforge.net/DTD/sodipodi-0.dtd"
   xmlns="http://www.w3.org/2000/svg"
   xmlns:svg="http://www.w3.org/2000/svg">
  <sodipodi:namedview
     id="namedview1"
     pagecolor="#ffffff"
     bordercolor="#000000"
     borderopacity="0.25"
     inkscape:showpageshadow="2"
     inkscape:pageopacity="0.0"
     inkscape:pagecheckerboard="0"
     inkscape:deskcolor="#d1d1d1"
     inkscape:zoom="12.272727"
     inkscape:cx="10.959259"
     inkscape:cy="10.959259"
     inkscape:window-width="1904"
     inkscape:window-height="1024"
     inkscape:window-x="0"
     inkscape:window-y="0"
     inkscape:window-maximized="1"
     inkscape:current-layer="svg1" />
  <defs
     id="defs3051">
    <style
       type="text/css"
       id="current-color-scheme">
      .ColorScheme-Text {
        color:#232629;
      }
      </style>
  </defs>
  <path
     d="m12 3c-4.431998 0-8 3.568002-8 8v5.007812l-1.34375-1.455078-0.65625 0.695313 2.3125 2.53125 0.1894531 0.220703 0.1875-0.220703 2.3125-2.53125-0.65625-0.695313-1.34375 1.455078-0.0019531-5.007812c0-3.877999 3.122001-7 7-7s7 3.122001 7 7-3.122001 7-7 7c-1.087039 0-2.0838742-0.291968-3-0.730469v1.126953c0.9282045 0.375012 1.934287 0.603516 3 0.603516 4.431998 0 8-3.568002 8-8s-3.568002-8-8-8zm-1 2v7h6v-1h-5v-6h-1z"
     style="fill:#eff0f1;fill-opacity:1;stroke:none"
     class="ColorScheme-Text"
     id="path1" />
</svg>
