<?xml version="1.0" encoding="UTF-8" standalone="no"?>
<svg
   version="1.1"
   id="Calque_1"
   x="0px"
   y="0px"
   viewBox="0 0 32 32"
   enable-background="new 0 0 32 32"
   xml:space="preserve"
   sodipodi:docname="backup.svg"
   inkscape:version="1.4.3 (0d15f75042, 2025-12-25)"
   xmlns:inkscape="http://www.inkscape.org/namespaces/inkscape"
   xmlns:sodipodi="http://sodipodi.sourceforge.net/DTD/sodipodi-0.dtd"
   xmlns="http://www.w3.org/2000/svg"
   xmlns:svg="http://www.w3.org/2000/svg"><sodipodi:namedview
   id="namedview1"
   pagecolor="#ffffff"
   bordercolor="#000000"
   borderopacity="0.25"
   inkscape:showpageshadow="2"
   inkscape:pageopacity="0.0"
   inkscape:pagecheckerboard="0"
   inkscape:deskcolor="#d1d1d1"
   inkscape:zoom="16"
   inkscape:cx="16.84375"
   inkscape:cy="15.40625"
   inkscape:window-width="1904"
   inkscape:window-height="1024"
   inkscape:window-x="0"
   inkscape:window-y="0"
   inkscape:window-maximized="1"
   inkscape:current-layer="g7954"
   showgrid="false" /><defs
   id="defs45" />

<g
   id="g7954"><path
     id="path2"
     d="M 28,6 C 28,4.9 27.1,4 26,4 H 6 C 4.9,4 4,4.9 4,6 v 20 c 0,1.1 0.9,2 2,2 h 20 c 1.1,0 2,-0.9 2,-2 z"
     fill="#4d4d4d"
     clip-rule="evenodd"
     fill-rule="evenodd" /><path
     id="path6"
     d="M 26,32 H 6 C 2.7,32 0,29.3 0,26 V 6 C 0,2.7 2.7,0 6,0 h 20 c 3.3,0 6,2.7 6,6 v 20 c 0,3.3 -2.7,6 -6,6 z M 28,6 C 28,4.9 27.1,4 26,4 H 6 C 4.9,4 4,4.9 4,6 v 20 c 0,1.1 0.9,2 2,2 h 20 c 1.1,0 2,-0.9 2,-2 z"
     fill="#f2f2f2"
     clip-rule="evenodd"
     fill-rule="evenodd" /><path
     fill="none"
     d="M 8.9659036,28 H 22.965904 c 1.1,0 2,-0.9 2,-2 V 15 14 H 6.9659036 v 1 11 c 0,1.1 0.9,2 2,2 z"
     id="path8" /><rect
     style="fill:#000000;fill-opacity:0;stroke:none;stroke-width:0.000000879999;stroke-linecap:round;stroke-linejoin:round"
     id="rect2311"
     width="29.020048"
     height="4"
     x="1.4899759"
     y="7.1611009" /><g
     id="g1"
     transform="matrix(1.199923,0,0,1.199923,4.0000847,4.0017587)"><path
       d="m 13.65,2.88 c 3.93,2.01 5.48,6.84 3.47,10.77 -2.01,3.93 -6.83,5.48 -10.77,3.47 -1.87,-0.96 -3.2,-2.56 -3.86,-4.4 l 1.64,-1.03 c 0.45,1.57 1.52,2.95 3.08,3.76 3.01,1.54 6.69,0.35 8.23,-2.66 C 16.99,9.78 15.8,6.1 12.79,4.55 9.78,3.01 6.1,4.2 4.56,7.21 L 6.44,8.18 1.49,11.26 1.1,5.44 2.88,6.35 C 4.9,2.4 9.75,0.89 13.65,2.88 Z M 9.29,10.71 C 9.11,10.53 9,10.28 9,10 9,9.93 9.03,9.88 9.04,9.81 H 9.03 L 10,5 10.97,9.81 14,13 9.5,10.88 9.52,10.86 C 9.44,10.82 9.36,10.77 9.29,10.71 Z"
       id="path1"
       style="fill:#ffffff;fill-opacity:1" /></g></g></svg>
